<svg version="1.1" id="Layer_1" xmlns="http://www.w3.org/2000/svg" xmlns:xlink="http://www.w3.org/1999/xlink" x="0px" y="0px"
	 width="100%" viewBox="0 0 225 225" enable-background="new 0 0 225 225" xml:space="preserve">
<path fill="#FEFEFE" opacity="1.000000" stroke="none" 
	d="
M226.000000,86.000000 
	C226.000000,133.000000 226.000000,179.500000 226.000000,226.000000 
	C151.000000,226.000000 76.000000,226.000000 1.000000,226.000000 
	C1.000000,151.000000 1.000000,76.000000 1.000000,1.000000 
	C76.000000,1.000000 151.000000,1.000000 226.000000,1.000000 
	C226.000000,29.166666 226.000000,57.333332 226.000000,86.000000 
M17.125702,116.282608 
	C21.412758,131.450012 29.292738,144.527084 41.432549,154.501984 
	C65.777985,174.505844 93.272278,179.436935 122.364296,167.308350 
	C151.405075,155.201126 167.241013,132.280090 170.581619,100.963341 
	C171.082626,96.266693 170.651367,91.470589 170.651367,86.720497 
	C167.028030,91.718582 164.387772,96.506264 161.886230,101.365356 
	C159.790039,105.437065 157.227661,109.407410 155.953201,113.740715 
	C148.441452,139.281799 124.682198,158.932312 98.400604,160.937164 
	C59.652538,163.893005 27.799097,135.006363 26.704247,96.221710 
	C25.758509,62.719227 52.466930,29.232048 92.941879,29.667139 
	C103.404480,29.779610 111.816673,26.390734 122.034698,22.430189 
	C91.368393,12.415139 64.137077,16.049232 40.827583,36.717201 
	C17.105461,57.751041 9.376729,84.514832 17.125702,116.282608 
M105.978554,91.420677 
	C105.522789,89.909019 105.067017,88.397362 104.611244,86.885704 
	C106.241165,87.049561 108.174721,86.700920 109.452995,87.458275 
	C119.748367,93.558128 130.742264,96.766754 142.752655,96.026794 
	C149.608139,95.604439 155.393478,92.933273 157.110016,85.832344 
	C159.399124,76.362679 161.704834,66.750076 162.394867,57.084042 
	C163.027496,48.222206 161.524490,39.207909 160.962479,30.260786 
	C160.509888,30.229506 160.057312,30.198223 159.604736,30.166943 
	C149.876205,46.258251 135.632858,57.689358 120.427269,67.999741 
	C109.138329,75.654373 97.321793,82.532913 86.061119,90.226753 
	C73.377274,98.892967 61.331390,108.356766 53.525326,122.090492 
	C48.363190,131.172562 48.559319,132.303055 56.964069,138.748062 
	C57.082417,138.838821 57.285213,138.819458 57.809525,138.922241 
	C58.681576,136.546967 59.846615,134.173447 60.415798,131.664749 
	C61.803524,125.548241 65.784378,122.918175 71.714211,122.484970 
	C78.012062,122.024879 84.314682,121.588501 90.595749,120.950119 
	C99.522331,120.042854 108.554253,119.570221 117.316795,117.800804 
	C128.615509,115.519249 138.865173,110.690186 147.697449,100.537987 
	C132.085022,102.525627 118.591766,100.311203 105.978554,91.420677 
M76.655113,91.102592 
	C79.991409,89.593323 80.393906,87.245163 80.316833,83.568596 
	C80.161255,76.146690 81.167900,68.687592 81.974854,61.274281 
	C82.077843,60.328148 83.852310,59.563961 84.852425,58.715481 
	C85.543983,59.836437 86.492096,60.884411 86.838867,62.103443 
	C87.078735,62.946655 86.367416,64.016342 86.289001,65.001373 
	C85.787727,71.298943 85.344063,77.601105 84.881439,83.901764 
	C85.425674,84.040749 85.969917,84.179733 86.514153,84.318718 
	C94.701553,78.936172 102.955971,73.650116 111.001343,68.063065 
	C112.157249,67.260361 112.658272,65.048721 112.853874,63.416218 
	C113.446938,58.466579 113.501358,53.441742 114.307358,48.535194 
	C114.530655,47.175877 116.640961,46.126541 117.885498,44.934978 
	C118.424721,46.443562 119.482536,47.979626 119.404320,49.455486 
	C119.184296,53.607262 118.496712,57.734264 117.993492,61.871033 
	C118.601082,62.227074 119.208672,62.583115 119.816261,62.939156 
	C128.117050,55.613884 137.115601,48.920506 144.500504,40.765800 
	C150.538986,34.097843 154.783188,25.765488 159.485687,17.967693 
	C160.231842,16.730398 159.198959,14.420247 158.988586,12.606117 
	C157.241974,12.978728 154.813538,12.742474 153.853531,13.817517 
	C143.516785,25.392990 130.101700,31.832813 115.968826,37.185242 
	C107.101593,40.543457 98.098160,43.611008 89.454254,47.476299 
	C68.361771,56.908211 55.130772,72.861870 51.505157,95.950134 
	C50.652428,101.380417 51.378967,107.058693 51.378967,112.704559 
	C60.203300,105.137184 68.139023,98.331841 76.655113,91.102592 
M159.265610,179.215027 
	C169.828094,189.822632 180.294189,200.528763 190.992401,210.997665 
	C196.623764,216.508301 204.426422,216.466217 209.255890,211.386322 
	C214.141479,206.247391 213.839844,199.336685 208.198822,193.620163 
	C197.097946,182.370712 185.886566,171.230209 174.705231,160.060333 
	C171.555511,156.913849 167.859177,155.633484 163.350586,156.464828 
	C154.878220,158.027054 149.013901,170.584137 159.265610,179.215027 
M148.823059,153.381271 
	C148.004822,154.202408 146.763519,154.893875 146.463165,155.873749 
	C145.957169,157.524567 146.048233,159.358398 145.888168,161.115250 
	C147.651443,160.989471 149.884644,161.497986 151.083267,160.610016 
	C153.846878,158.562637 156.369308,156.033783 158.438324,153.285278 
	C159.212723,152.256561 158.456604,150.075684 158.398300,148.420120 
	C156.759903,148.478348 154.845718,148.025040 153.551971,148.722519 
	C151.884094,149.621719 150.712906,151.442230 148.823059,153.381271 
z"/>
<path fill="#5BA880" opacity="1.000000" stroke="none" 
	d="
M17.035799,115.880936 
	C9.376729,84.514832 17.105461,57.751041 40.827583,36.717201 
	C64.137077,16.049232 91.368393,12.415139 122.034698,22.430189 
	C111.816673,26.390734 103.404480,29.779610 92.941879,29.667139 
	C52.466930,29.232048 25.758509,62.719227 26.704247,96.221710 
	C27.799097,135.006363 59.652538,163.893005 98.400604,160.937164 
	C124.682198,158.932312 148.441452,139.281799 155.953201,113.740715 
	C157.227661,109.407410 159.790039,105.437065 161.886230,101.365356 
	C164.387772,96.506264 167.028030,91.718582 170.651367,86.720497 
	C170.651367,91.470589 171.082626,96.266693 170.581619,100.963341 
	C167.241013,132.280090 151.405075,155.201126 122.364296,167.308350 
	C93.272278,179.436935 65.777985,174.505844 41.432549,154.501984 
	C29.292738,144.527084 21.412758,131.450012 17.035799,115.880936 
z"/>
<path fill="#59A77F" opacity="1.000000" stroke="none" 
	d="
M106.288193,91.631783 
	C118.591766,100.311203 132.085022,102.525627 147.697449,100.537987 
	C138.865173,110.690186 128.615509,115.519249 117.316795,117.800804 
	C108.554253,119.570221 99.522331,120.042854 90.595749,120.950119 
	C84.314682,121.588501 78.012062,122.024879 71.714211,122.484970 
	C65.784378,122.918175 61.803524,125.548241 60.415798,131.664749 
	C59.846615,134.173447 58.681576,136.546967 57.809525,138.922241 
	C57.285213,138.819458 57.082417,138.838821 56.964069,138.748062 
	C48.559319,132.303055 48.363190,131.172562 53.525326,122.090492 
	C61.331390,108.356766 73.377274,98.892967 86.061119,90.226753 
	C97.321793,82.532913 109.138329,75.654373 120.427269,67.999741 
	C135.632858,57.689358 149.876205,46.258251 159.604736,30.166943 
	C160.057312,30.198223 160.509888,30.229506 160.962479,30.260786 
	C161.524490,39.207909 163.027496,48.222206 162.394867,57.084042 
	C161.704834,66.750076 159.399124,76.362679 157.110016,85.832344 
	C155.393478,92.933273 149.608139,95.604439 142.752655,96.026794 
	C130.742264,96.766754 119.748367,93.558128 109.452995,87.458275 
	C108.174721,86.700920 106.241165,87.049561 104.611244,86.885704 
	C105.067017,88.397362 105.522789,89.909019 106.288193,91.631783 
z"/>
<path fill="#5AA77F" opacity="1.000000" stroke="none" 
	d="
M76.364929,91.314545 
	C68.139023,98.331841 60.203300,105.137184 51.378967,112.704559 
	C51.378967,107.058693 50.652428,101.380417 51.505157,95.950134 
	C55.130772,72.861870 68.361771,56.908211 89.454254,47.476299 
	C98.098160,43.611008 107.101593,40.543457 115.968826,37.185242 
	C130.101700,31.832813 143.516785,25.392990 153.853531,13.817517 
	C154.813538,12.742474 157.241974,12.978728 158.988586,12.606117 
	C159.198959,14.420247 160.231842,16.730398 159.485687,17.967693 
	C154.783188,25.765488 150.538986,34.097843 144.500504,40.765800 
	C137.115601,48.920506 128.117050,55.613884 119.816261,62.939156 
	C119.208672,62.583115 118.601082,62.227074 117.993492,61.871033 
	C118.496712,57.734264 119.184296,53.607262 119.404320,49.455486 
	C119.482536,47.979626 118.424721,46.443562 117.885498,44.934982 
	C116.640961,46.126541 114.530655,47.175877 114.307358,48.535194 
	C113.501358,53.441742 113.446938,58.466579 112.853874,63.416218 
	C112.658272,65.048721 112.157249,67.260361 111.001343,68.063065 
	C102.955971,73.650116 94.701553,78.936172 86.514153,84.318718 
	C85.969917,84.179733 85.425674,84.040749 84.881439,83.901764 
	C85.344063,77.601105 85.787727,71.298943 86.289001,65.001373 
	C86.367416,64.016342 87.078735,62.946655 86.838867,62.103443 
	C86.492096,60.884411 85.543983,59.836437 84.852425,58.715485 
	C83.852310,59.563961 82.077843,60.328148 81.974854,61.274281 
	C81.167900,68.687592 80.161255,76.146690 80.316833,83.568596 
	C80.393906,87.245163 79.991409,89.593323 76.364929,91.314545 
z"/>
<path fill="#58A77E" opacity="1.000000" stroke="none" 
	d="
M158.989655,178.975555 
	C149.013901,170.584137 154.878220,158.027054 163.350586,156.464828 
	C167.859177,155.633484 171.555511,156.913849 174.705231,160.060333 
	C185.886566,171.230209 197.097946,182.370712 208.198822,193.620163 
	C213.839844,199.336685 214.141479,206.247391 209.255890,211.386322 
	C204.426422,216.466217 196.623764,216.508301 190.992401,210.997665 
	C180.294189,200.528763 169.828094,189.822632 158.989655,178.975555 
z"/>
<path fill="#5AA87F" opacity="1.000000" stroke="none" 
	d="
M149.075439,153.123596 
	C150.712906,151.442230 151.884094,149.621719 153.551971,148.722519 
	C154.845718,148.025040 156.759903,148.478348 158.398315,148.420120 
	C158.456604,150.075684 159.212723,152.256561 158.438324,153.285278 
	C156.369308,156.033783 153.846878,158.562637 151.083267,160.610016 
	C149.884644,161.497986 147.651443,160.989471 145.888168,161.115250 
	C146.048233,159.358398 145.957169,157.524567 146.463165,155.873749 
	C146.763519,154.893875 148.004822,154.202408 149.075439,153.123596 
z"/>
</svg>