<?xml version="1.0" standalone="no"?>
<!DOCTYPE svg PUBLIC "-//W3C//DTD SVG 20010904//EN"
 "http://www.w3.org/TR/2001/REC-SVG-20010904/DTD/svg10.dtd">
<svg version="1.0" xmlns="http://www.w3.org/2000/svg"
 width="512.000000pt" height="512.000000pt" viewBox="0 0 512.000000 512.000000"
 preserveAspectRatio="xMidYMid meet">
<metadata>
Created by potrace 1.16, written by Peter Selinger 2001-2019
</metadata>
<g transform="translate(0.000000,512.000000) scale(0.100000,-0.100000)"
fill="#000000" stroke="none">
<path d="M2255 4864 c-1061 -144 -1891 -976 -2030 -2037 -20 -155 -20 -459 0
-614 48 -365 177 -707 377 -1003 107 -158 118 -171 118 -136 0 8 12 28 26 43
21 23 25 25 21 8 -3 -11 -8 -28 -12 -37 -4 -9 10 -1 30 18 21 19 39 33 42 31
6 -7 -29 -77 -39 -77 -4 0 -8 -3 -8 -7 0 -5 23 -6 51 -4 70 4 80 -10 26 -39
-44 -24 -44 -24 -25 -44 11 -12 24 -29 29 -39 12 -21 0 -22 -46 -3 -41 17 -44
10 -13 -30 14 -18 16 -24 5 -15 -11 9 -17 10 -17 2 0 -18 77 -68 115 -75 24
-5 68 -34 138 -93 300 -251 648 -422 1032 -507 282 -62 708 -62 990 0 174 39
397 115 523 178 41 20 55 22 104 16 31 -5 62 -12 69 -16 7 -4 31 -7 53 -6 32
1 47 8 68 32 26 29 27 30 11 58 -19 34 -12 59 19 71 92 35 116 48 141 70 18
16 27 35 27 55 0 25 14 43 78 103 71 66 75 72 50 73 -15 0 -29 4 -33 10 -3 5
-12 7 -19 4 -8 -3 -17 -1 -21 5 -12 21 -44 11 -95 -30 l-53 -42 24 42 c19 34
21 44 10 51 -8 4 -20 6 -27 3 -6 -2 -15 0 -19 6 -3 6 -14 11 -24 11 -10 0 -24
7 -31 15 -7 9 -23 13 -37 11 -13 -3 -32 2 -41 10 -9 9 -46 37 -82 63 -106 78
-159 135 -357 381 -70 87 -141 162 -198 210 -131 109 -195 178 -222 238 -29
63 -25 99 18 142 77 77 200 38 367 -115 102 -94 141 -125 155 -125 6 0 -44 56
-113 125 -72 73 -118 125 -108 125 9 0 18 5 20 10 4 12 256 63 275 56 8 -3 36
-1 64 5 44 10 56 9 85 -7 19 -10 34 -24 34 -31 0 -7 3 -13 8 -13 4 0 23 -14
42 -31 l34 -32 14 22 c14 20 42 29 42 13 0 -10 42 -8 59 2 7 4 15 5 19 1 4 -3
-1 -11 -11 -16 -9 -6 -17 -17 -17 -24 0 -8 -6 -15 -14 -15 -7 0 -16 -9 -19
-20 -3 -11 -1 -18 3 -15 5 3 12 -1 17 -8 13 -21 67 -39 125 -41 29 -1 75 -6
102 -11 45 -7 49 -7 43 9 -4 10 -7 33 -7 52 l0 34 -59 0 c-32 0 -87 3 -122 7
-85 9 -47 21 72 22 l86 1 7 38 c9 54 8 62 -9 62 -18 0 -19 12 -4 27 8 8 8 25
-2 62 -9 34 -16 48 -23 41 -5 -5 -18 -10 -29 -10 -27 0 -17 34 11 38 27 4 27
3 2 58 l-21 44 -37 -19 c-20 -10 -54 -23 -75 -29 -57 -16 -32 9 43 42 33 15
60 31 60 36 0 24 -36 90 -49 90 -7 0 -29 -9 -47 -21 -20 -12 -34 -16 -34 -9 0
21 42 68 56 63 23 -9 16 15 -27 90 -51 87 -89 136 -194 246 -202 211 -484 391
-830 529 -96 38 -118 55 -108 86 4 14 1 17 -9 14 -8 -4 -20 3 -26 13 -7 10
-11 19 -9 19 8 0 315 -101 332 -109 11 -6 61 -26 110 -46 50 -20 110 -46 135
-60 25 -13 65 -34 90 -47 106 -56 317 -206 383 -272 18 -17 41 -38 52 -46 11
-8 47 -46 80 -85 81 -95 78 -92 94 -87 9 3 11 -2 6 -17 -6 -21 8 -30 20 -11
11 18 23 10 18 -12 -4 -21 -3 -22 10 -6 15 18 27 14 27 -9 0 -7 -9 -13 -20
-13 -11 0 -20 -7 -20 -15 0 -8 7 -15 15 -15 8 0 15 5 15 10 0 6 5 10 10 10 16
0 12 -30 -5 -36 -8 -4 -15 -11 -15 -16 0 -6 15 -1 34 10 18 11 55 24 82 30 27
6 57 14 67 17 37 15 15 -16 -26 -35 -24 -11 -59 -33 -77 -49 -34 -28 -34 -28
-21 -72 20 -68 27 -73 72 -47 22 12 39 25 39 30 0 4 6 8 13 8 8 0 13 10 13 23
-1 12 4 21 12 19 8 -1 12 14 13 50 1 29 1 57 0 61 -1 4 -3 24 -6 44 -5 39 -45
205 -51 212 -2 2 -10 -2 -19 -9 -9 -8 -15 -8 -15 -2 0 6 5 14 10 17 6 3 10 14
10 23 0 15 -83 229 -93 238 -10 10 -37 -10 -37 -26 0 -11 -4 -22 -10 -25 -6
-4 -10 5 -10 20 0 23 -4 26 -27 23 l-28 -3 3 -80 c3 -71 2 -78 -11 -60 -8 11
-17 36 -21 55 -3 19 -8 46 -11 60 -2 14 -9 57 -14 95 -5 39 -14 90 -20 115
-13 55 -14 87 -3 75 5 -6 16 -46 26 -90 10 -44 22 -96 28 -117 l11 -36 33 50
c26 39 32 54 24 68 -20 37 -9 44 20 12 27 -30 33 -32 62 -24 21 6 32 14 29 23
-12 43 -20 99 -21 135 0 27 -6 47 -19 58 -16 15 -18 22 -9 42 13 28 16 28 43
8 15 -11 17 -18 9 -32 -6 -10 -7 -30 -3 -47 4 -16 17 -66 28 -110 11 -44 21
-92 21 -107 0 -15 4 -29 10 -33 5 -3 7 -12 4 -20 -6 -15 13 -118 26 -144 4 -9
13 -28 18 -43 8 -20 19 -27 44 -30 25 -2 33 -8 33 -23 0 -14 -6 -20 -21 -19
-17 0 -20 -3 -14 -15 5 -9 18 -37 29 -63 22 -50 32 -57 48 -35 14 16 -21 242
-38 253 -5 3 -9 25 -9 49 0 50 -20 112 -27 83 -6 -26 -66 -20 -75 7 -14 44 -9
65 15 64 21 0 21 -1 2 -9 -18 -8 -19 -9 -1 -9 14 -1 17 -6 12 -26 -4 -14 -2
-25 4 -25 5 0 10 18 10 41 0 33 3 40 16 35 13 -5 15 0 9 36 -10 60 -17 63 -49
23 -35 -44 -46 -44 -46 -1 0 38 21 61 50 53 19 -5 19 -1 15 97 -3 79 -11 122
-34 192 -41 124 -83 222 -117 274 -15 25 -29 47 -29 50 -1 3 -13 28 -28 57
-18 35 -32 51 -41 47 -19 -7 -32 16 -15 26 10 7 6 17 -16 46 -54 70 0 27 83
-67 68 -77 134 -173 233 -339 8 -14 43 -87 77 -160 9 -19 22 -38 29 -43 6 -4
10 -14 6 -23 -3 -8 2 -34 12 -57 29 -70 33 -81 33 -103 0 -12 6 -41 12 -65 11
-39 14 -42 24 -25 6 10 19 28 28 40 13 17 17 18 21 6 6 -22 29 -93 34 -107 4
-9 -7 -13 -35 -13 -23 0 -43 -3 -45 -7 -3 -5 0 -37 5 -73 5 -36 10 -101 12
-145 2 -61 5 -79 16 -77 7 2 17 -3 22 -10 6 -11 10 -10 17 1 5 8 7 19 5 26 -6
14 23 41 33 31 4 -3 1 -12 -5 -18 -7 -7 -12 -22 -12 -35 0 -18 6 -23 25 -23
30 0 33 -16 5 -25 -42 -13 -81 -95 -45 -95 16 0 31 -43 20 -59 -4 -7 3 -11 16
-11 18 0 20 3 11 12 -19 19 -14 26 14 20 16 -3 23 -9 20 -18 -3 -8 0 -14 5
-14 7 0 9 9 5 23 -3 12 -6 25 -6 29 0 4 -10 8 -22 10 -15 2 -23 10 -23 23 0
29 39 27 43 -2 2 -13 7 -23 12 -23 12 0 22 -121 21 -247 -2 -272 -60 -550
-176 -843 -30 -77 -120 -249 -170 -324 -14 -21 -16 -31 -7 -34 6 -2 12 -8 12
-13 0 -6 14 -24 30 -42 30 -31 31 -32 46 -12 58 76 180 320 238 476 41 111 88
293 112 429 22 127 30 503 15 641 -124 1087 -963 1942 -2044 2084 -146 19
-481 19 -622 -1z m928 -248 c73 -35 142 -92 189 -156 61 -84 113 -227 124
-340 12 -116 11 -141 -7 -161 -17 -20 -17 -20 -56 2 -48 27 -88 57 -143 108
-24 23 -51 41 -60 41 -11 0 -12 2 -3 8 9 6 3 22 -22 60 -20 28 -40 63 -45 76
-6 17 -15 23 -32 21 -13 -1 -15 0 -5 2 21 5 21 5 -16 102 -13 35 -32 68 -41
73 -12 7 -14 13 -7 22 8 9 8 30 0 69 -23 115 3 130 124 73z m-679 -61 c103
-26 204 -92 287 -187 85 -98 98 -136 31 -90 -42 29 -121 69 -182 92 -30 11
-64 25 -75 30 -37 17 -331 90 -366 90 -32 0 -69 15 -59 22 11 8 87 38 120 47
55 15 176 12 244 -4z m-262 -104 c51 -16 154 -48 228 -71 203 -63 391 -133
387 -145 -5 -16 -85 -33 -155 -34 -62 -1 -197 24 -217 39 -6 5 -34 18 -63 29
-45 18 -165 90 -182 110 -3 3 -26 23 -52 44 -41 33 -59 57 -44 57 3 0 47 -13
98 -29z m-395 -55 c105 -27 270 -122 319 -183 12 -14 8 -53 -5 -53 -3 0 -12
-4 -19 -9 -11 -6 -9 -26 9 -102 12 -52 23 -95 24 -97 1 -2 18 7 38 18 l35 21
-33 72 c-35 75 -37 91 -10 63 16 -15 39 -21 60 -16 20 6 121 9 145 4 18 -3 26
-12 27 -27 1 -12 14 -30 28 -40 30 -22 32 -55 7 -88 -10 -13 -25 -38 -33 -54
-8 -17 -30 -52 -49 -78 -34 -47 -36 -48 -79 -42 -24 3 -58 5 -75 5 l-31 0 40
38 c22 20 68 61 103 91 59 50 74 71 52 71 -5 0 -10 -7 -10 -15 0 -8 -8 -15
-17 -15 -17 0 -90 -51 -161 -112 -18 -15 -30 -33 -27 -40 4 -11 -14 -14 -90
-16 -52 -2 -95 1 -95 6 0 10 80 87 124 118 23 17 27 24 18 40 -5 10 -16 54
-22 97 -11 65 -16 77 -29 72 -21 -9 -42 -14 -126 -32 -69 -14 -220 -13 -257 2
-13 5 -18 2 -18 -9 0 -10 8 -16 22 -16 35 0 110 -40 104 -56 -9 -22 12 -26 26
-4 7 11 18 20 25 20 7 0 13 5 13 11 0 8 5 8 15 -1 8 -7 25 -10 39 -6 19 5 28
1 36 -13 13 -25 -23 -126 -77 -213 -33 -53 -46 -65 -116 -101 -44 -23 -91 -48
-105 -56 -27 -15 -182 -169 -218 -217 -18 -24 -24 -26 -37 -16 -18 15 -29 63
-17 77 4 6 13 30 20 55 6 25 24 72 40 105 36 78 41 95 30 95 -6 0 -10 -4 -10
-9 0 -4 -19 -11 -41 -14 -51 -7 -57 -15 -52 -75 9 -96 -71 -401 -126 -481 -9
-14 -32 -73 -50 -131 -18 -58 -37 -115 -42 -128 -5 -13 -9 -31 -9 -42 0 -26
-15 -33 -34 -15 -25 25 -28 0 -6 -55 28 -72 45 -95 99 -133 47 -34 71 -80 71
-137 0 -54 27 -105 97 -186 41 -46 78 -84 83 -84 6 0 11 12 11 28 l2 27 4 -27
c5 -33 18 -36 33 -7 9 16 8 24 -3 37 -8 9 -17 28 -20 40 -4 19 4 15 44 -25 48
-47 72 -88 27 -45 l-23 21 -2 -35 c-1 -32 0 -34 30 -34 24 0 43 -12 89 -60 33
-33 63 -60 68 -60 23 0 18 -24 -14 -61 -64 -75 -80 -122 -81 -229 0 -105 18
-164 83 -273 19 -32 33 -60 31 -61 -2 -2 -74 -15 -159 -30 -475 -84 -646 -143
-790 -274 -14 -12 -27 -22 -31 -22 -12 0 -48 47 -92 120 l-46 75 32 7 c65 13
153 30 175 33 13 2 26 6 29 9 6 6 -11 5 -179 -9 -73 -6 -77 -6 -89 17 -6 13
-19 30 -28 39 -24 22 -114 237 -107 255 3 8 1 14 -4 14 -5 0 -12 10 -15 23 -4
12 -15 40 -25 62 -38 85 -61 190 -67 310 -3 75 -10 126 -18 135 -7 8 -16 42
-20 75 -3 33 -8 78 -11 100 -4 30 -2 36 5 25 6 -8 11 -26 11 -40 0 -31 25
-102 32 -95 10 10 -2 116 -20 175 -9 33 -16 99 -17 165 -1 61 0 90 2 65 2 -25
8 -54 13 -65 5 -11 11 -33 14 -50 21 -123 68 -325 77 -325 4 0 5 10 2 21 -4
13 0 26 8 33 11 8 15 35 16 102 1 99 20 182 59 256 26 49 25 68 -3 68 -11 0
-9 5 8 19 l23 19 -39 11 c-22 6 -46 11 -52 11 -7 0 -13 5 -13 10 0 12 16 13
38 1 9 -5 36 -12 60 -16 38 -6 42 -5 42 14 0 36 -31 100 -48 100 -53 3 -112
14 -112 21 0 31 35 147 55 186 31 59 31 68 0 82 -32 15 -32 39 0 54 34 15 59
-5 50 -41 l-7 -26 31 29 c17 17 31 36 31 43 0 7 8 13 18 13 9 0 33 11 53 24
38 26 130 59 195 70 49 9 70 -8 55 -46 -26 -68 -59 -128 -93 -169 -38 -46 -45
-72 -29 -97 10 -16 19 -5 45 51 10 22 25 47 34 56 10 10 34 38 55 64 31 36 44
45 65 43 18 -2 28 -10 30 -22 1 -10 8 -44 14 -75 10 -47 15 -55 30 -51 10 2
25 -1 33 -8 12 -10 13 -6 8 27 -3 21 -11 50 -18 65 -10 21 -10 29 -1 37 16 13
20 175 5 202 -6 11 -8 23 -5 26 3 3 9 -4 13 -15 12 -31 23 -18 73 83 24 50 59
108 77 131 18 23 33 45 33 50 0 5 14 22 31 36 20 18 32 40 36 65 l6 38 -26
-31 c-40 -48 -127 -110 -213 -155 -44 -23 -83 -44 -89 -49 -5 -4 -23 -10 -40
-13 -16 -3 -64 -13 -104 -21 -59 -12 -77 -13 -83 -3 -12 19 -9 60 7 81 8 11
15 26 15 34 0 7 6 19 13 27 6 7 28 35 47 62 68 96 169 160 309 195 69 17 222
26 208 11 -4 -3 -2 -12 4 -19 7 -8 7 -24 1 -47 -8 -29 -7 -36 10 -46 12 -7 17
-8 13 -2 -3 6 -3 20 0 31 8 25 37 25 94 0 42 -19 43 -21 25 -35 -10 -8 -25
-15 -32 -15 -7 0 -10 -5 -7 -11 4 -6 -2 -13 -14 -16 -28 -7 -27 -12 11 -64
l31 -43 40 44 c42 48 57 78 57 115 0 13 10 40 21 60 18 30 20 41 11 61 -10 19
-9 24 3 24 8 0 15 4 15 9 0 5 3 16 6 24 4 10 -5 16 -31 21 -20 4 -53 16 -73
26 -21 10 -57 27 -82 39 -25 11 -63 32 -85 46 l-40 26 100 -6 c55 -3 132 -8
170 -10 313 -18 300 -17 449 -35 44 -6 81 -8 83 -6 6 6 -121 44 -212 62 -73
15 -138 19 -338 19 -136 0 -247 2 -247 4 0 7 65 61 73 61 5 0 21 9 36 19 77
55 244 71 378 37z m1893 -81 c7 -8 17 -15 22 -15 5 0 16 -6 23 -12 114 -106
157 -169 191 -283 35 -117 19 -467 -21 -451 -8 3 -15 -2 -17 -11 -2 -12 -17
-2 -54 34 -55 54 -113 142 -139 213 -9 25 -21 54 -25 65 -11 25 -28 107 -35
160 -10 87 -6 273 7 294 15 25 31 27 48 6z m-855 -220 l-6 -55 93 1 c51 0 120
-5 153 -10 33 -6 61 -11 63 -11 1 0 2 -7 2 -15 0 -8 4 -15 10 -15 18 0 38 -45
43 -100 3 -30 3 -47 0 -37 -3 11 -11 16 -22 12 -9 -3 -26 2 -37 10 -19 15 -19
15 0 30 10 8 23 16 28 17 5 2 7 15 3 30 -7 26 -7 26 -69 -35 -53 -53 -190
-143 -229 -151 -7 -2 -19 -6 -27 -9 -8 -4 -51 -15 -95 -26 -111 -27 -215 -36
-260 -21 l-37 12 134 55 c282 116 425 172 481 188 31 9 57 21 57 26 0 5 -4 9
-9 9 -17 0 -206 -52 -216 -59 -5 -4 -30 -13 -55 -20 -56 -16 -82 -27 -256
-112 -134 -65 -164 -77 -164 -63 0 14 62 94 102 129 68 61 86 74 131 97 23 12
43 22 45 24 2 1 -4 19 -12 39 -19 45 -21 79 -4 69 7 -4 31 -7 55 -5 34 2 43
-1 43 -13 0 -28 14 -17 33 24 10 22 21 40 24 40 3 0 2 -25 -2 -55z m585 -352
c90 -19 148 -44 220 -94 111 -77 117 -91 28 -66 -98 28 -162 38 -323 52 -183
15 -322 18 -330 6 -2 -5 55 -14 128 -20 113 -10 259 -25 462 -47 77 -8 118
-18 122 -30 2 -6 -32 -23 -75 -38 -142 -48 -331 -35 -508 34 -80 32 -142 65
-164 87 -37 36 123 119 254 132 68 7 80 6 186 -16z m-2849 -129 c-5 -27 -13
-70 -16 -96 -3 -27 -10 -48 -15 -48 -5 0 -14 -16 -20 -35 -13 -39 -24 -44 -35
-17 -6 16 -7 16 -19 0 -7 -10 -18 -18 -25 -18 -6 0 -11 -5 -11 -12 0 -6 -3 -8
-6 -5 -9 9 32 121 63 174 17 29 29 40 40 36 11 -4 14 -1 11 13 -3 17 30 69 39
60 2 -2 -1 -25 -6 -52z m1776 19 c139 -50 249 -128 336 -237 l39 -50 -36 -18
c-19 -10 -39 -25 -44 -34 -14 -24 -30 -9 -37 34 -11 60 -16 72 -30 72 -9 0
-18 -21 -26 -60 -12 -63 -21 -73 -39 -41 -5 11 -34 31 -64 46 -59 29 -80 47
-95 85 -5 14 -10 18 -10 10 -2 -32 40 -81 83 -100 46 -19 89 -57 83 -74 -2 -5
-23 -10 -48 -11 -24 -1 -64 -12 -88 -25 -42 -21 -64 -22 -116 -5 -20 7 -20 6
-1 -9 27 -22 89 -20 128 4 41 25 103 28 94 4 -3 -9 -6 -18 -6 -20 0 -2 -6 -4
-14 -4 -23 0 -66 -40 -86 -81 -19 -37 -63 -69 -94 -69 -9 0 -25 18 -36 39 -11
22 -25 43 -31 47 -6 4 0 -13 15 -38 14 -25 26 -52 26 -61 0 -14 3 -14 33 -1
66 31 82 43 96 71 18 37 51 73 67 73 18 0 6 -69 -15 -95 -24 -28 -41 -71 -41
-104 0 -18 -12 -40 -35 -64 -37 -38 -36 -50 1 -19 26 22 45 56 49 90 5 36 21
79 33 86 6 3 13 -12 17 -34 13 -74 86 -130 149 -114 38 9 85 68 92 114 6 34 9
38 21 28 21 -17 43 -63 43 -89 0 -13 17 -38 41 -61 l41 -39 -17 -82 c-31 -156
-126 -315 -248 -420 -66 -56 -182 -121 -203 -113 -8 3 -13 2 -9 -3 3 -5 -16
-16 -42 -25 -263 -85 -564 -4 -756 203 -65 71 -112 145 -101 162 4 7 3 9 -4 5
-6 -4 -19 12 -32 41 -12 28 -17 49 -11 53 6 3 3 28 -8 65 -14 44 -20 54 -25
40 -3 -11 -4 -3 -1 18 2 22 0 35 -6 32 -5 -4 -8 29 -8 82 1 69 3 81 10 53 6
-27 7 -20 5 30 -3 44 -1 59 5 45 7 -14 8 -8 4 20 -4 31 -3 37 5 25 9 -12 10
-9 5 13 -3 16 -2 26 3 23 4 -2 8 11 8 31 0 19 7 40 15 47 7 6 15 20 17 31 9
56 152 224 245 287 143 97 258 129 442 124 113 -3 140 -7 212 -33z m425 -504
l60 -60 5 -80 c4 -48 2 -79 -4 -79 -18 0 -53 46 -59 80 -8 37 -29 76 -55 100
-20 18 -35 100 -18 100 6 0 38 -27 71 -61z m-143 -931 c70 -78 91 -104 91
-113 0 -5 -11 -21 -25 -33 l-25 -24 35 -41 35 -40 -30 -15 c-19 -9 -30 -23
-31 -36 -1 -11 -7 6 -14 39 -20 92 -53 165 -95 216 l-38 45 27 16 c36 22 37
22 70 -14z m291 -485 c0 -7 3 -13 8 -13 4 0 30 -28 57 -62 28 -35 57 -72 67
-83 9 -11 96 -119 194 -240 98 -121 195 -240 216 -264 41 -47 46 -61 24 -61
-8 0 -16 -7 -20 -15 -9 -24 -50 -17 -79 13 -41 42 -67 74 -67 84 0 20 -36 5
-61 -24 -24 -30 -29 -32 -50 -20 -29 16 -131 186 -153 254 -4 14 -12 16 -34
12 -46 -9 -70 9 -77 61 -7 41 -10 45 -42 51 -19 4 -57 4 -84 2 -71 -7 -123
-47 -192 -151 -32 -48 -64 -87 -71 -87 -12 0 -76 117 -76 139 0 4 -13 19 -28
34 -34 32 -68 34 -121 7 -123 -62 -195 -188 -235 -410 -29 -159 -25 -152 -51
-95 -41 92 -58 185 -53 293 4 89 8 104 42 167 76 144 187 223 359 258 l61 13
-44 23 -45 23 50 -6 c176 -21 245 -19 245 5 0 6 -14 27 -31 47 -38 43 -59 91
-58 129 1 23 3 24 6 6 2 -12 22 -41 43 -65 33 -36 41 -40 50 -28 6 8 8 26 5
40 -4 19 -3 22 5 10 5 -8 7 -27 4 -41 -4 -22 1 -31 25 -49 27 -19 32 -19 37
-6 7 18 81 70 114 81 21 7 21 7 3 28 -45 52 -42 57 5 7 28 -30 51 -61 52 -67z
m-1585 -948 c198 -24 364 -63 628 -149 75 -24 162 -50 191 -56 46 -9 62 -19
98 -58 98 -108 226 -177 389 -212 81 -17 -366 -4 -481 14 -356 56 -708 204
-989 415 l-93 70 63 -4 c35 -3 123 -12 194 -20z"/>
<path d="M3063 4620 c2 -9 85 -137 184 -285 98 -149 186 -287 196 -307 9 -21
21 -38 26 -38 9 0 7 9 -16 75 -12 35 -94 189 -119 222 -13 17 -24 34 -24 38 0
3 -35 52 -77 108 -78 103 -179 215 -170 187z"/>
<path d="M1305 3981 c-19 -6 -122 -59 -195 -101 -63 -36 -251 -180 -279 -213
-24 -30 6 -18 71 27 110 76 395 271 414 283 21 13 19 14 -11 4z"/>
<path d="M1838 3921 c-104 -94 -227 -223 -287 -301 -77 -99 -133 -181 -128
-186 3 -4 102 102 182 195 90 104 206 234 264 294 36 37 61 67 55 67 -6 0 -45
-31 -86 -69z"/>
<path d="M1307 3721 c-29 -66 -77 -213 -86 -266 -5 -27 -19 -87 -30 -133 -21
-84 -39 -222 -28 -222 5 0 14 31 43 160 22 97 52 220 91 364 19 70 32 130 30
132 -2 2 -11 -14 -20 -35z"/>
<path d="M710 3094 c-19 -16 -52 -42 -73 -58 -32 -23 -38 -33 -33 -52 5 -17 2
-26 -9 -30 -16 -6 -20 -59 -9 -102 l6 -22 24 26 c14 14 22 29 19 34 -8 12 13
50 27 50 10 0 7 -29 -7 -62 -5 -14 -2 -18 14 -18 12 0 21 -4 21 -10 0 -5 -4
-10 -10 -10 -16 0 -12 -26 6 -41 10 -8 14 -24 12 -45 -3 -27 0 -34 18 -38 47
-12 53 -1 36 70 -13 53 -14 80 -5 152 5 48 8 109 4 136 l-6 50 -35 -30z"/>
<path d="M1390 1972 c-8 -2 -38 -22 -67 -44 l-52 -40 27 -49 c15 -28 41 -65
57 -84 l30 -34 100 6 100 6 -1 52 c-2 94 -59 165 -147 184 -18 4 -39 6 -47 3z"/>
<path d="M3700 4301 c0 -12 41 -137 100 -301 47 -131 95 -282 122 -382 6 -21
14 -38 19 -38 12 0 12 0 -7 105 -19 113 -107 379 -168 508 -25 55 -46 103 -46
108 0 5 -4 9 -10 9 -5 0 -10 -4 -10 -9z"/>
<path d="M1851 3393 c-19 -10 -46 -34 -60 -52 -14 -19 -20 -31 -12 -26 9 5 19
2 28 -11 12 -16 15 -17 23 -4 5 8 6 18 3 22 -9 16 17 36 39 30 18 -4 19 -7 6
-16 -8 -6 -20 -21 -26 -33 -13 -23 -16 -51 -5 -40 3 4 12 2 20 -5 12 -10 13
-7 8 15 -5 17 -3 27 4 27 6 0 11 -3 11 -7 0 -5 14 -23 30 -40 l31 -33 -51 3
c-35 3 -54 9 -64 22 -9 12 -19 16 -32 11 -18 -7 -17 -9 9 -28 15 -11 27 -26
27 -33 0 -17 27 -27 34 -12 3 9 8 8 16 -3 8 -12 9 -8 4 15 -6 25 -5 28 7 19 8
-6 26 -14 42 -16 23 -5 27 -2 27 20 0 22 2 23 17 11 15 -12 16 -12 10 4 -4 11
-5 23 -1 28 6 11 27 -8 37 -33 4 -11 17 -18 32 -18 14 0 25 -4 25 -10 0 -5 15
-30 33 -54 24 -33 37 -43 52 -40 15 4 17 3 6 -4 -11 -8 -10 -15 8 -40 22 -31
22 -31 1 -42 -32 -17 -25 -33 11 -26 34 6 50 -6 69 -52 6 -13 14 -21 19 -18
11 7 -62 160 -100 207 -36 45 -36 59 -3 59 14 0 23 4 19 10 -3 6 -23 10 -43
10 -30 0 -44 7 -75 41 -29 30 -38 47 -34 65 5 27 -7 33 -17 8 -5 -13 -10 -13
-36 6 -17 12 -30 31 -30 43 -1 19 -2 20 -10 6 -12 -21 -55 -13 -66 12 -9 18
-10 18 -43 2z"/>
<path d="M2698 2836 c-10 -7 -18 -16 -18 -20 0 -3 -12 -20 -27 -37 -16 -17
-27 -35 -26 -40 2 -4 -6 -6 -17 -4 -11 2 -23 -2 -27 -8 -5 -7 -14 -12 -20 -13
-7 -1 -22 -2 -34 -2 -14 -2 -19 -7 -15 -17 3 -8 0 -15 -6 -15 -7 0 -22 -10
-35 -22 -13 -12 -23 -16 -23 -10 0 7 -4 12 -9 12 -6 0 -8 -9 -6 -19 2 -11 -4
-26 -13 -33 -12 -10 -14 -10 -8 0 4 6 2 12 -3 12 -6 0 -11 -7 -11 -16 0 -9 -9
-27 -20 -41 -11 -14 -20 -32 -20 -39 0 -8 -5 -14 -11 -14 -5 0 -8 -4 -4 -10 3
-5 -2 -18 -11 -29 -16 -18 -19 -18 -40 -5 -23 16 -38 6 -29 -18 5 -11 -1 -14
-24 -10 -26 4 -31 0 -37 -23 -4 -15 -2 -31 4 -37 16 -16 70 -17 76 -2 3 8 12
11 21 8 8 -3 15 -1 15 5 0 6 7 11 15 11 8 0 15 -6 15 -12 0 -9 3 -9 9 1 7 11
10 10 14 -5 3 -14 5 -12 6 8 2 56 28 77 51 41 10 -15 10 -14 6 7 -3 14 -9 35
-12 48 -5 18 4 33 48 77 30 30 60 55 67 55 6 0 17 -11 23 -25 15 -34 25 -32
26 6 1 55 44 79 70 39 18 -30 33 -15 17 17 -13 24 -12 31 5 58 26 43 73 69 98
56 16 -8 21 -7 26 6 4 9 5 17 4 17 -2 1 -18 14 -36 29 -38 30 -49 32 -74 13z"/>
<path d="M1930 2743 c0 -27 12 -79 26 -118 15 -38 27 -88 28 -110 1 -37 -1
-40 -28 -43 -17 -2 -39 4 -55 16 -52 38 -221 96 -221 75 0 -21 170 -153 245
-191 59 -29 121 -24 153 13 21 25 24 35 19 83 -7 63 -48 156 -113 253 -26 38
-48 69 -50 69 -2 0 -4 -21 -4 -47z"/>
</g>
</svg>
